<svg xmlns="http://www.w3.org/2000/svg" viewBox="0 0 640 420" font-family="sans-serif">
<style>
  :root { --bg:#ffffff; --fg:#222222; --grid:#dddddd; --theory:#888888; --meas:#2266cc; }
  @media (prefers-color-scheme: dark) {
    :root { --bg:#1e1e1e; --fg:#e8e8e8; --grid:#3a3a3a; --theory:#999999; --meas:#6fb4ff; }
  }
</style>
<rect width="640" height="420" fill="var(--bg)"/>
<line x1="70" y1="20.0" x2="620" y2="20.0" stroke="var(--grid)" stroke-width="1"/><line x1="70" y1="70.0" x2="620" y2="70.0" stroke="var(--grid)" stroke-width="1"/><line x1="70" y1="120.0" x2="620" y2="120.0" stroke="var(--grid)" stroke-width="1"/><line x1="70" y1="170.0" x2="620" y2="170.0" stroke="var(--grid)" stroke-width="1"/><line x1="70" y1="220.0" x2="620" y2="220.0" stroke="var(--grid)" stroke-width="1"/><line x1="70" y1="270.0" x2="620" y2="270.0" stroke="var(--grid)" stroke-width="1"/><line x1="70" y1="320.0" x2="620" y2="320.0" stroke="var(--grid)" stroke-width="1"/><line x1="70" y1="370.0" x2="620" y2="370.0" stroke="var(--grid)" stroke-width="1"/><line x1="70.0" y1="20" x2="70.0" y2="370" stroke="var(--grid)" stroke-width="1"/><line x1="138.8" y1="20" x2="138.8" y2="370" stroke="var(--grid)" stroke-width="1"/><line x1="207.5" y1="20" x2="207.5" y2="370" stroke="var(--grid)" stroke-width="1"/><line x1="276.2" y1="20" x2="276.2" y2="370" stroke="var(--grid)" stroke-width="1"/><line x1="345.0" y1="20" x2="345.0" y2="370" stroke="var(--grid)" stroke-width="1"/><line x1="413.8" y1="20" x2="413.8" y2="370" stroke="var(--grid)" stroke-width="1"/><line x1="482.5" y1="20" x2="482.5" y2="370" stroke="var(--grid)" stroke-width="1"/><line x1="551.2" y1="20" x2="551.2" y2="370" stroke="var(--grid)" stroke-width="1"/><line x1="620.0" y1="20" x2="620.0" y2="370" stroke="var(--grid)" stroke-width="1"/>
<polyline points="70.0,75.2 138.8,91.3 207.5,115.2 276.2,151.1 345.0,206.0 413.8,290.6 482.5,370.0 551.2,370.0 620.0,370.0" fill="none" stroke="var(--theory)" stroke-width="2" stroke-dasharray="5,4"/>
<polyline points="70.0,46.4 138.8,50.5 207.5,55.9 276.2,64.6 345.0,76.8 413.8,95.1 482.5,123.7 551.2,168.4 620.0,235.8" fill="none" stroke="var(--meas)" stroke-width="2.5"/>
<circle cx="70.0" cy="46.4" r="3" fill="var(--meas)"/><circle cx="138.8" cy="50.5" r="3" fill="var(--meas)"/><circle cx="207.5" cy="55.9" r="3" fill="var(--meas)"/><circle cx="276.2" cy="64.6" r="3" fill="var(--meas)"/><circle cx="345.0" cy="76.8" r="3" fill="var(--meas)"/><circle cx="413.8" cy="95.1" r="3" fill="var(--meas)"/><circle cx="482.5" cy="123.7" r="3" fill="var(--meas)"/><circle cx="551.2" cy="168.4" r="3" fill="var(--meas)"/><circle cx="620.0" cy="235.8" r="3" fill="var(--meas)"/>
<text x="62" y="24.0" text-anchor="end" font-size="11" fill="var(--fg)">1e0</text><text x="62" y="74.0" text-anchor="end" font-size="11" fill="var(--fg)">1e-1</text><text x="62" y="124.0" text-anchor="end" font-size="11" fill="var(--fg)">1e-2</text><text x="62" y="174.0" text-anchor="end" font-size="11" fill="var(--fg)">1e-3</text><text x="62" y="224.0" text-anchor="end" font-size="11" fill="var(--fg)">1e-4</text><text x="62" y="274.0" text-anchor="end" font-size="11" fill="var(--fg)">1e-5</text><text x="62" y="324.0" text-anchor="end" font-size="11" fill="var(--fg)">1e-6</text><text x="62" y="374.0" text-anchor="end" font-size="11" fill="var(--fg)">1e-7</text><text x="70.0" y="388" text-anchor="middle" font-size="11" fill="var(--fg)">0</text><text x="138.8" y="388" text-anchor="middle" font-size="11" fill="var(--fg)">2</text><text x="207.5" y="388" text-anchor="middle" font-size="11" fill="var(--fg)">4</text><text x="276.2" y="388" text-anchor="middle" font-size="11" fill="var(--fg)">6</text><text x="345.0" y="388" text-anchor="middle" font-size="11" fill="var(--fg)">8</text><text x="413.8" y="388" text-anchor="middle" font-size="11" fill="var(--fg)">10</text><text x="482.5" y="388" text-anchor="middle" font-size="11" fill="var(--fg)">12</text><text x="551.2" y="388" text-anchor="middle" font-size="11" fill="var(--fg)">14</text><text x="620.0" y="388" text-anchor="middle" font-size="11" fill="var(--fg)">16</text>
<text x="345.0" y="412" text-anchor="middle" font-size="12" fill="var(--fg)">Eb/N0 (dB)</text>
<text x="14" y="195.0" text-anchor="middle" font-size="12" fill="var(--fg)" transform="rotate(-90 14 195.0)">Bit error rate</text>
<rect x="430" y="24" width="12" height="12" fill="var(--meas)"/>
<text x="446" y="34" font-size="11" fill="var(--fg)">measured (tx_top/rx_top model)</text>
<line x1="430" y1="46" x2="442" y2="46" stroke="var(--theory)" stroke-width="2" stroke-dasharray="5,4"/>
<text x="446" y="50" font-size="11" fill="var(--fg)">theoretical QPSK</text>
</svg>
